# xmcd
#
# Track frame offsets: 
#        150
#        20405
#        40805
#        61095
#
# Disc length: 1083 seconds
#
# Revision: 3
# Processed by: cddbd v1.5.2PL0 Copyright (c) Steve Scherf et al.
# Submitted via: ExactAudioCopyFreeDBPlugin 1.0
#
DISCID=27043904
DTITLE=ベルダンディー - 女神はうたう
DYEAR=1992
DGENRE=Anime
TTITLE0=女神はうたう
TTITLE1=僕と生きることが君のしあわせ
TTITLE2=女神はうたう(オリジナル・カラオケ)
TTITLE3=僕と生きることが君のしあわせ(オリジナル・カラオケ)
EXTD=YEAR: 2014
EXTT0=
EXTT1=
EXTT2=
EXTT3=
PLAYORDER=
